<svg xmlns="http://www.w3.org/2000/svg" width="12" height="10" viewBox="0 0 12 10">
    <path fill="#2B90D9" fill-rule="evenodd" d="M12 1.184c-.44.2-.916.336-1.414.397A2.519 2.519 0 0 0 11.67.185c-.476.289-1.002.499-1.564.612A2.428 2.428 0 0 0 8.308 0C6.949 0 5.847 1.13 5.847 2.524c0 .198.02.39.063.575C3.864 2.994 2.05 1.99.835.461a2.57 2.57 0 0 0-.333 1.27c0 .876.435 1.649 1.095 2.101a2.417 2.417 0 0 1-1.115-.314v.03c0 1.224.849 2.245 1.975 2.476a2.391 2.391 0 0 1-1.112.044C1.66 7.07 2.567 7.8 3.645 7.82A4.861 4.861 0 0 1 0 8.867 6.855 6.855 0 0 0 3.774 10c4.529 0 7.005-3.846 7.005-7.182 0-.11-.002-.22-.007-.328.481-.356.9-.8 1.228-1.306"/>
</svg>
